<svg xmlns="http://www.w3.org/2000/svg" width="48" height="48" viewBox="0 0 7 7" fill="currentColor">
    <path d="m2.25 7h2.55c1.2 0 2.2-1 2.2-2.2v-2.55c0-1.25-1-2.25-2.25-2.25h-2.55c-1.2 0-2.2 1-2.2 2.2v2.55c0 1.25 1 2.25 2.25 2.25zm3.75-4.6v2.2c0 .75-.65 1.4-1.4 1.4h-2.2c-.8 0-1.4-.6-1.4-1.4v-2.2c0-.75.65-1.4 1.4-1.4h2.2c.8 0 1.4.6 1.4 1.4z"/>
    <path d="m5.063 2.868v1.378c0 .408-.409.817-.868.817h-1.327c-.51 0-.868-.358-.868-.868v-1.327c0-.46.408-.868.868-.868h1.378c.459 0 .817.357.817.868z"/>
</svg>